<svg width="70" height="70" fill="none" xmlns="http://www.w3.org/2000/svg"><g filter="url(#filter0_d)"><circle cx="35" cy="35" r="25" fill="#14AC51"/><circle cx="35" cy="35" r="24.5" stroke="#fff"/></g><path fill-rule="evenodd" clip-rule="evenodd" d="M42.086 27.907A9.934 9.934 0 0035.042 25c-5.489 0-9.957 4.446-9.959 9.91a9.86 9.86 0 001.33 4.955L25 45l5.279-1.379a10 10 0 004.759 1.207h.004c5.488 0 9.956-4.446 9.958-9.91a9.816 9.816 0 00-2.914-7.011zm-7.044 15.248h-.003a8.29 8.29 0 01-4.213-1.149l-.302-.179-3.132.818.835-3.04-.197-.31a8.194 8.194 0 01-1.265-4.384c.002-4.542 3.715-8.237 8.28-8.237a8.256 8.256 0 015.852 2.415 8.158 8.158 0 012.422 5.828c-.003 4.542-3.716 8.238-8.277 8.238zm4.54-6.17c-.25-.125-1.472-.723-1.7-.806-.228-.083-.393-.124-.56.124-.166.247-.643.805-.788.97-.145.166-.29.186-.539.062-.248-.124-1.05-.385-2.001-1.229-.74-.657-1.24-1.467-1.385-1.715-.145-.249-.015-.382.11-.506.112-.11.249-.29.373-.434.124-.145.165-.247.248-.413.084-.165.043-.31-.02-.434s-.56-1.343-.768-1.839c-.2-.48-.406-.416-.56-.423-.158-.006-.316-.01-.475-.009a.92.92 0 00-.665.31c-.228.248-.87.846-.87 2.065 0 1.219.892 2.397 1.016 2.563.124.165 1.755 2.666 4.25 3.739.595.255 1.059.407 1.42.522.595.189 1.137.161 1.567.098.478-.07 1.472-.598 1.679-1.177.207-.578.207-1.074.145-1.178-.062-.103-.23-.166-.477-.29z" fill="#fff"/><defs><filter id="filter0_d" x="0" y="0" width="70" height="70" filterUnits="userSpaceOnUse" color-interpolation-filters="sRGB"><feFlood flood-opacity="0" result="BackgroundImageFix"/><feColorMatrix in="SourceAlpha" values="0 0 0 0 0 0 0 0 0 0 0 0 0 0 0 0 0 0 127 0"/><feOffset/><feGaussianBlur stdDeviation="5"/><feColorMatrix values="0 0 0 0 0 0 0 0 0 0 0 0 0 0 0 0 0 0 0.1 0"/><feBlend in2="BackgroundImageFix" result="effect1_dropShadow"/><feBlend in="SourceGraphic" in2="effect1_dropShadow" result="shape"/></filter></defs></svg>