<svg width="70" height="70" fill="none" xmlns="http://www.w3.org/2000/svg"><g filter="url(#filter0_d)"><circle cx="35" cy="35" r="25" fill="#4598FF"/><circle cx="35" cy="35" r="24.5" stroke="#fff"/></g><path d="M44.79 24.48l.59.59c.812.814.69 2.257-.278 3.223L32.935 40.46l-3.942 1.442c-.495.182-.977-.054-1.075-.525a.927.927 0 01.045-.51l1.47-3.976 12.133-12.134c.967-.966 2.41-1.09 3.223-.276v-.001zm-12.386 1.21a1 1 0 010 2h-4a2 2 0 00-2 2v12a2 2 0 002 2h12a2 2 0 002-2v-4a1 1 0 112 0v4a4 4 0 01-4 4h-12a4 4 0 01-4-4v-12a4 4 0 014-4h4z" fill="#fff"/><defs><filter id="filter0_d" x="0" y="0" width="70" height="70" filterUnits="userSpaceOnUse" color-interpolation-filters="sRGB"><feFlood flood-opacity="0" result="BackgroundImageFix"/><feColorMatrix in="SourceAlpha" values="0 0 0 0 0 0 0 0 0 0 0 0 0 0 0 0 0 0 127 0"/><feOffset/><feGaussianBlur stdDeviation="5"/><feColorMatrix values="0 0 0 0 0 0 0 0 0 0 0 0 0 0 0 0 0 0 0.1 0"/><feBlend in2="BackgroundImageFix" result="effect1_dropShadow"/><feBlend in="SourceGraphic" in2="effect1_dropShadow" result="shape"/></filter></defs></svg>