<svg width="70" height="70" fill="none" xmlns="http://www.w3.org/2000/svg"><g filter="url(#filter0_d)"><circle cx="35" cy="35" r="25" fill="#C43A7C"/><circle cx="35" cy="35" r="24.5" stroke="#fff"/></g><path d="M35 30.193A4.8 4.8 0 0030.193 35 4.8 4.8 0 0035 39.807 4.8 4.8 0 0039.807 35 4.8 4.8 0 0035 30.193zm0 7.931A3.13 3.13 0 0131.876 35 3.13 3.13 0 0135 31.876 3.13 3.13 0 0138.124 35 3.13 3.13 0 0135 38.124zm5.004-9.248a1.121 1.121 0 100 2.245 1.12 1.12 0 001.038-1.552 1.122 1.122 0 00-1.038-.693zM44.37 35c0-1.294.012-2.576-.06-3.867-.073-1.5-.415-2.831-1.512-3.928-1.1-1.1-2.428-1.44-3.928-1.512-1.294-.073-2.576-.061-3.867-.061-1.294 0-2.576-.012-3.868.061-1.5.073-2.831.415-3.928 1.512-1.1 1.099-1.439 2.428-1.512 3.928-.072 1.294-.06 2.576-.06 3.867s-.012 2.576.06 3.867c.073 1.5.415 2.831 1.512 3.928 1.1 1.1 2.428 1.44 3.928 1.512 1.294.073 2.576.061 3.867.061 1.294 0 2.576.012 3.868-.061 1.5-.073 2.83-.415 3.928-1.512 1.099-1.099 1.439-2.428 1.511-3.928.076-1.291.061-2.573.061-3.867zm-2.062 5.527A2.978 2.978 0 0141.6 41.6c-.33.33-.647.537-1.073.708-1.233.49-4.16.38-5.527.38-1.366 0-4.296.11-5.529-.378a2.977 2.977 0 01-1.073-.708 2.996 2.996 0 01-.708-1.073c-.488-1.235-.377-4.163-.377-5.529 0-1.366-.11-4.296.377-5.529.171-.427.377-.745.708-1.073a3.03 3.03 0 011.073-.708c1.233-.488 4.163-.378 5.53-.378 1.366 0 4.295-.11 5.528.378.427.17.745.377 1.073.708.33.33.537.646.708 1.073.488 1.233.378 4.163.378 5.529 0 1.366.11 4.294-.38 5.527z" fill="#fff"/><defs><filter id="filter0_d" x="0" y="0" width="70" height="70" filterUnits="userSpaceOnUse" color-interpolation-filters="sRGB"><feFlood flood-opacity="0" result="BackgroundImageFix"/><feColorMatrix in="SourceAlpha" values="0 0 0 0 0 0 0 0 0 0 0 0 0 0 0 0 0 0 127 0"/><feOffset/><feGaussianBlur stdDeviation="5"/><feColorMatrix values="0 0 0 0 0 0 0 0 0 0 0 0 0 0 0 0 0 0 0.1 0"/><feBlend in2="BackgroundImageFix" result="effect1_dropShadow"/><feBlend in="SourceGraphic" in2="effect1_dropShadow" result="shape"/></filter></defs></svg>