<svg width="206" height="45" fill="none" xmlns="http://www.w3.org/2000/svg"><path fill-rule="evenodd" clip-rule="evenodd" d="M.04 16.791c.425 5.778 4.438 10.406 12.04 13.886C21.2 20.52 34.974 10.294 53.406 0 40.718 5.255 28.448 11.917 16.595 19.987c-4.17-3.514-5.906-6.341-5.21-8.483.972-2.872 3.325-3.724 7.062-2.557-2.405-.35-3.674.07-3.806 1.264-.112.778.348 1.246.85 1.582.861.575 1.978.65 3.795.466 1.68-.158 3.078.384 4.196 1.627.593.318.892.008.897-.93.998.038 1.634-.03 1.91-.203-4.555-2.828-7.757-5.094-9.608-6.798-1.476-1.065.726-1.934.819-2.216C10.606 2.84 6.286 4.833 4.671 7.204c-3.405 2.84-4.949 6.036-4.63 9.587z" fill="#F9F9F9"/><path fill-rule="evenodd" clip-rule="evenodd" d="M51.258 13.004C40.943 15.156 26.551 24.035 8.082 39.643 25.736 20.153 40.397 9.462 52.068 7.57c9.175-1.143 15.117 1.762 17.827 8.715.94 5.705-4.423 11.825-16.09 18.36-7.307 4.304-13.25 7.712-17.827 10.226-6.265-2.635-12.053-5.81-17.364-9.529 13.65-10.578 22.91-15.885 27.782-15.92 3.125-.502 4.851.563 5.18 3.196-.098 1.554-.985 2.774-2.662 3.66.227-2.153-.622-3.547-2.547-4.183-3.055-.542-5.023.271-5.903 2.44-1.63 4.327-3.019 6.854-4.167 7.583-2.097 1.032-2.975 1.961-2.634 2.788.43 1.096.826 1.735 1.187 1.918.57-.813 1.101-1.316 1.591-1.51.435.388-.037 1.269-1.418 2.643.59.54 1.352.501 2.286-.116 9.372-6.075 15.469-9.91 18.29-11.505.869-.406 1.872.069 3.01 1.424.243-1.622.416-3.597.52-5.926 2.29-4.137 2.483-6.926.58-8.366-2.588-1.25-5.405-1.404-8.45-.465z" fill="#F9F9F9"/><path d="M96.45 31h4.8V14.65h5.85V10H90.6v4.65h5.85V31zm22.045.3c5.4 0 8.85-3.45 8.85-9V10h-4.8v12.3c0 2.55-1.8 4.35-4.05 4.35s-4.05-1.8-4.05-4.35V10h-4.8v12.3c0 5.55 3.45 9 8.85 9zm12.892-.3h14.25v-4.65h-9.45V10h-4.8v21zm16.787 0h4.8v-6.3h4.95c4.05 0 6.9-2.85 6.9-7.35s-2.85-7.35-6.9-7.35h-9.75v21zm4.8-10.95v-5.4h4.65c1.35 0 2.4 1.05 2.4 2.7 0 1.65-1.05 2.7-2.4 2.7h-4.65zM163.942 31h5.25l1.35-4.2h8.1l1.35 4.2h5.25l-7.2-21h-6.9l-7.2 21zm7.95-8.4l2.4-7.5h.6l2.4 7.5h-5.4zm15.306 8.4h4.8v-6.75h.6l6 6.75h6l-6.45-7.05s5.85-.3 5.85-6.75c0-4.35-2.85-7.2-6.9-7.2h-9.9v21zm4.8-11.1v-5.4h4.8c1.35 0 2.4 1.05 2.4 2.7 0 1.65-1.05 2.7-2.4 2.7h-4.8z" fill="#F9F9F9"/></svg>