<svg width="9" height="15" fill="none" xmlns="http://www.w3.org/2000/svg"><path d="M1.55 5.29a.628.628 0 01-1.018-.2.614.614 0 01.136-.675L4.197.956a.63.63 0 01.884 0l3.53 3.46a.614.614 0 010 .874.63.63 0 01-.885 0L4.638 2.454 1.55 5.29z" fill="#F9F9F9"/><path d="M1.55 9.806a.628.628 0 01-1.018-.2.614.614 0 01.136-.675l3.529-3.46a.63.63 0 01.884 0l3.53 3.46a.614.614 0 010 .875.63.63 0 01-.885 0L4.638 6.969 1.55 9.806z" fill="#F9F9F9"/><path d="M1.55 14.322a.628.628 0 01-1.018-.2.614.614 0 01.136-.675l3.529-3.46a.63.63 0 01.884 0l3.53 3.46a.613.613 0 010 .875.63.63 0 01-.885 0l-3.088-2.837-3.087 2.837z" fill="#F9F9F9"/></svg>