<svg width="17" height="17" fill="none" xmlns="http://www.w3.org/2000/svg"><path d="M8.5 1.063a7.438 7.438 0 10.001 14.875A7.438 7.438 0 008.5 1.062zm2.773 10.518c-.675.621-1.594.986-2.692.986A4.064 4.064 0 014.516 8.5 4.068 4.068 0 018.58 4.431c1.096 0 2.016.403 2.721 1.06l-1.165 1.166a2.195 2.195 0 00-1.554-.607c-1.06 0-1.956.715-2.276 1.676a2.446 2.446 0 00-.128.774c0 .269.047.53.128.774.32.96 1.217 1.676 2.274 1.676.548 0 1.013-.144 1.377-.388a1.87 1.87 0 00.811-1.229H8.581V7.76h3.83c.049.267.073.544.073.831 0 1.24-.443 2.281-1.211 2.99z" fill="#E95258"/></svg>