<svg width="206" height="45" fill="none" xmlns="http://www.w3.org/2000/svg"><path fill-rule="evenodd" clip-rule="evenodd" d="M.04 16.84c.425 5.793 4.438 10.435 12.04 13.925C21.2 20.578 34.974 10.323 53.406 0 40.718 5.27 28.448 11.951 16.595 20.044c-4.17-3.524-5.906-6.36-5.21-8.507.972-2.88 3.325-3.735 7.062-2.564-2.405-.352-3.674.07-3.806 1.268-.112.78.348 1.249.85 1.586.861.577 1.978.652 3.795.467 1.68-.159 3.078.385 4.196 1.631.593.32.892.009.897-.932.998.038 1.634-.03 1.91-.204-4.555-2.836-7.757-5.109-9.608-6.817-1.476-1.068.726-1.94.819-2.222-6.894-.902-11.214 1.097-12.829 3.475-3.405 2.848-4.949 6.052-4.63 9.614z" fill="#32495E"/><path fill-rule="evenodd" clip-rule="evenodd" d="M51.258 13.041C40.943 15.199 26.551 24.104 8.082 39.756 25.736 20.211 40.397 9.49 52.068 7.593c9.175-1.146 15.117 1.767 17.827 8.74.94 5.72-4.423 11.858-16.09 18.412C46.498 39.061 40.555 42.48 35.978 45c-6.265-2.642-12.053-5.827-17.364-9.556 13.65-10.609 22.91-15.93 27.782-15.965 3.125-.504 4.851.564 5.18 3.205-.098 1.558-.985 2.781-2.662 3.67.227-2.16-.622-3.557-2.547-4.195-3.055-.543-5.023.272-5.903 2.447-1.63 4.34-3.019 6.874-4.167 7.604-2.097 1.035-2.975 1.968-2.634 2.797.43 1.099.826 1.74 1.187 1.923.57-.815 1.101-1.32 1.591-1.515.435.39-.037 1.273-1.418 2.651.59.542 1.352.503 2.286-.116 9.372-6.092 15.469-9.938 18.29-11.537.869-.408 1.872.068 3.01 1.427.243-1.626.416-3.607.52-5.942 2.29-4.15 2.483-6.946.58-8.39-2.588-1.253-5.405-1.409-8.45-.467z" fill="#E95258"/><path d="M96.45 31.02h4.8V14.67h5.85v-4.65H90.6v4.65h5.85v16.35zm22.045.3c5.4 0 8.85-3.45 8.85-9v-12.3h-4.8v12.3c0 2.55-1.8 4.35-4.05 4.35s-4.05-1.8-4.05-4.35v-12.3h-4.8v12.3c0 5.55 3.45 9 8.85 9zm12.892-.3h14.25v-4.65h-9.45V10.02h-4.8v21zm16.787 0h4.8v-6.3h4.95c4.05 0 6.9-2.85 6.9-7.35s-2.85-7.35-6.9-7.35h-9.75v21zm4.8-10.95v-5.4h4.65c1.35 0 2.4 1.05 2.4 2.7 0 1.65-1.05 2.7-2.4 2.7h-4.65zm10.968 10.95h5.25l1.35-4.2h8.1l1.35 4.2h5.25l-7.2-21h-6.9l-7.2 21zm7.95-8.4l2.4-7.5h.6l2.4 7.5h-5.4zm15.306 8.4h4.8v-6.75h.6l6 6.75h6l-6.45-7.05s5.85-.3 5.85-6.75c0-4.35-2.85-7.2-6.9-7.2h-9.9v21zm4.8-11.1v-5.4h4.8c1.35 0 2.4 1.05 2.4 2.7 0 1.65-1.05 2.7-2.4 2.7h-4.8z" fill="#E95258"/></svg>