<svg width="98" height="98" fill="none" xmlns="http://www.w3.org/2000/svg"><circle cx="49" cy="49" r="48" stroke="#E95258" stroke-width="2"/><path d="M38.594 47.972c3.512 0 4.882-2.998 4.882-6.338l-4.882 6.338zm9.686 4.561c0-2.308 1.234-5.395 5.216-5.395l-5.216 5.395z" fill="#EA5A47"/><path d="M53.496 58.764s.169 10.791-8.179 10.791H28.444c-7.408 0-7.88-10.791 0-10.791-7.408 0-7.88-10.792 0-10.792-8.393-7.451 1.928-13.94 6.681-8.93-4.932-6.808 5.524-10.598 9.121-5.138-.423-5.46 4.982-6.444 9.996-2.352l-.445.361c2.44-2.44 10.46-1.113 10.46 5.462l-2.281 1.668c7.055-7.055 14.602 4.304 8.736 8.458h1.37c4.882 0 5.439 11.263-1.37 11.263H42.106" fill="#32495E"/><path d="M53.797 31.913c-2.484 2.484-.291 3.266-4.39 7.366l4.39-7.366z" fill="#EA5A47"/><path d="M28.445 47.972h10.149m0 0c3.512 0 4.882-2.998 4.882-6.338m-15.031 17.13h3.854m15.981 0v-6.23m0-.001c0-2.308 1.234-5.395 5.216-5.395m18.586.364H63.26" stroke="#E95258" stroke-width="2" stroke-miterlimit="10" stroke-linecap="round" stroke-linejoin="round"/><path d="M53.496 58.764s.169 10.791-8.179 10.791H28.444c-7.408 0-7.88-10.791 0-10.791-7.408 0-7.88-10.792 0-10.792-8.393-7.451 1.928-13.94 6.681-8.93-4.932-6.808 5.524-10.598 9.121-5.138-.423-5.46 4.982-6.444 9.996-2.352l-.445.361c2.44-2.44 10.46-1.113 10.46 5.462l-2.281 1.668c7.055-7.055 14.602 4.304 8.736 8.458h1.37c4.882 0 5.439 11.263-1.37 11.263H42.106m11.691-26.851c-2.484 2.484-.291 3.266-4.39 7.366" stroke="#E95258" stroke-width="2" stroke-miterlimit="10" stroke-linecap="round" stroke-linejoin="round"/></svg>