<svg width="98" height="98" fill="none" xmlns="http://www.w3.org/2000/svg"><circle cx="49" cy="49" r="48" stroke="#E95258" stroke-width="2"/><path d="M55.123 41.533l-.088.317H65.28c1.666 0 3.088.399 4.086 1.152.99.747 1.584 1.856 1.584 3.334 0 1.386-.837 2.797-1.972 3.648l-.18.135.116.194c.442.737.852 1.573.852 2.387 0 1.365-.963 2.628-2.103 3.34l-.177.11.078.195c.284.71.426 1.418.426 2.275 0 1.793-1.24 3.199-2.954 3.913l-.247.103.12.24c.116.233.121.467.121.924 0 .95-.513 1.997-1.4 2.813a5.216 5.216 0 01-3.53 1.377H46.04c-1.478 0-2.85-.64-4.266-1.3-.218-.101-.437-.203-.658-.304l-.039-.019c-1.347-.674-2.508-1.254-3.667-1.329v-20.8c3.243-2.518 7.224-6.22 8.863-10.39l.008-.023.005-.024 1.477-7.974c.07-.208.134-.363.224-.498.089-.133.21-.257.404-.387 1.28-.71 2.269-.852 3.569-.852.481 0 .973.103 1.442.377.469.275.93.73 1.337 1.456.82 1.461 1.411 4 1.411 8.277 0 2.198-.293 4.691-1.027 7.333zm10.402 17.284l.005-.024v-.321c0-.947-.28-1.508-.507-1.961h0c-.22-.441-.364-.737-.242-1.23.052-.174.188-.326.42-.486.152-.107.318-.2.5-.301.107-.06.218-.122.336-.192.609-.361 1.269-.87 1.269-1.898 0-.973-.412-1.547-.756-1.986-.01-.012-.02-.024-.028-.036-.337-.43-.512-.652-.411-1.012.05-.145.174-.282.384-.442.104-.079.22-.157.35-.244h0c.126-.086.263-.178.398-.28.27-.203.548-.451.756-.787.21-.34.343-.755.343-1.281 0-.637-.41-1.15-.971-1.49-.563-.342-1.313-.536-2.091-.536H51.96c-.387 0-.69-.128-.896-.334-.206-.206-.334-.509-.334-.896s.128-.69.334-.896c.206-.206.509-.334.896-.334h.489l.049-.186c.742-2.82 1.192-5.212 1.192-7.464 0-2.828-.297-4.703-.639-5.879-.17-.587-.354-1.006-.52-1.284a1.655 1.655 0 00-.247-.328.678.678 0 00-.134-.104.382.382 0 00-.19-.055h-.014c-.73 0-1.2 0-1.823.155l-.156.04-.029.159-1.332 7.4-.004.022v.276c-1.76 5.084-6.423 9.175-10.113 11.979l-.099.075v15.859l.19.047c1.152.289 2.31.867 3.5 1.462l.043.02c1.444.723 2.674 1.338 3.917 1.338H60.1c.63 0 1.234-.157 1.688-.446.456-.29.782-.73.782-1.284 0-.69-.078-1.154-.136-1.497a11.154 11.154 0 01-.033-.205 1.523 1.523 0 01-.02-.43.993.993 0 01.146-.39.664.664 0 01.166-.134 2.8 2.8 0 01.335-.168c.113-.049.234-.098.364-.15l.075-.03c.158-.064.325-.133.492-.21.655-.299 1.392-.751 1.566-1.621z" fill="#E95258" stroke="#32495E" stroke-width=".5"/><path d="M26.8 44.31h-.25v21.22h9.38V44.31H26.8zm8.88 23.68H26.8c-1.49 0-2.71-1.22-2.71-2.71V44.56c0-1.49 1.22-2.71 2.71-2.71h8.88c1.49 0 2.71 1.22 2.71 2.71v20.72c0 1.49-1.22 2.71-2.71 2.71z" fill="#E95258" stroke="#32495E" stroke-width=".5"/></svg>