<svg width="98" height="98" fill="none" xmlns="http://www.w3.org/2000/svg"><path d="M97 49c0 26.51-21.49 48-48 48S1 75.51 1 49 22.49 1 49 1s48 21.49 48 48z" stroke="#E95258" stroke-width="2"/><path d="M82.725 45.97v27.099H79.4v-6.415l-.645-.005-60.125-.48-.655-.006v6.905H14.65V24.65h3.325v9.25h7.91A12.029 12.029 0 0137.9 45.914v6.575h4.5V35.056h29.412A10.925 10.925 0 0182.725 45.97zm-64.1-8.745h-.65v.65l-.003 13.964v.65h16.6v-6.576 0a8.698 8.698 0 00-8.688-8.688h0-7.259zm60.12 26.1l.655.005v-7.516H17.975v7.024l.645.005 60.125.481zm.005-10.836h.65V45.97v0a7.594 7.594 0 00-7.587-7.588h0-26.088V52.49H78.75z" fill="#E95258" stroke="#32495E" stroke-width="1.3"/></svg>