<svg width="98" height="98" fill="none" xmlns="http://www.w3.org/2000/svg"><circle cx="49" cy="49" r="48" stroke="#E95258" stroke-width="2"/><path d="M60.973 55.762l-1.05-.659a.673.673 0 00-.524-.089.687.687 0 00-.431.307 11.67 11.67 0 01-9.942 5.512 11.662 11.662 0 01-9.98-5.569.696.696 0 00-.954-.226l-1.058.653a.694.694 0 00-.226.955 14.288 14.288 0 0012.218 6.81 14.285 14.285 0 0012.167-6.738.694.694 0 00-.22-.956zM40.24 42.636a1.931 1.931 0 100-3.863 1.931 1.931 0 000 3.863zm16.905 0a1.931 1.931 0 100-3.863 1.931 1.931 0 000 3.863z" fill="#E95258"/></svg>