<svg width="8" height="8" viewBox="0 0 8 8" fill="none" xmlns="http://www.w3.org/2000/svg">
<path d="M1.84566 7.2953C1.89958 7.32335 1.96012 7.33618 2.02079 7.33242C2.08145 7.32866 2.13994 7.30846 2.18999 7.27397L6.52333 4.27397C6.56761 4.24329 6.60379 4.20234 6.62878 4.15462C6.65378 4.1069 6.66683 4.05384 6.66683 3.99997C6.66683 3.9461 6.65378 3.89304 6.62878 3.84532C6.60379 3.7976 6.56761 3.75665 6.52333 3.72597L2.18999 0.725969C2.13998 0.691367 2.08146 0.671104 2.02076 0.667375C1.96007 0.663647 1.8995 0.676594 1.84564 0.704815C1.79177 0.733037 1.74665 0.775457 1.71516 0.827482C1.68367 0.879508 1.66701 0.939156 1.66699 0.999969V6.99997C1.66698 7.06081 1.68363 7.1205 1.71512 7.17256C1.74662 7.22462 1.79176 7.26707 1.84566 7.2953Z" fill="#E95258"/>
</svg>
