<svg width="70" height="70" viewBox="0 0 70 70" fill="none" xmlns="http://www.w3.org/2000/svg">
<g filter="url(#filter0_d)">
<circle cx="35" cy="35" r="25" fill="#14AC51"/>
<circle cx="35" cy="35" r="24.5" stroke="white"/>
</g>
<path fill-rule="evenodd" clip-rule="evenodd" d="M42.0859 27.9068C41.1634 26.9827 40.0658 26.2499 38.8567 25.7509C37.6476 25.2519 36.3511 24.9967 35.0421 25C29.5535 25 25.0854 29.4458 25.0832 34.9106C25.0832 36.6571 25.5413 38.3617 26.4121 39.8653L25 45L30.279 43.6211C31.7392 44.4122 33.3751 44.8271 35.0377 44.8278H35.0421C40.5296 44.8278 44.9977 40.382 45 34.9172C45.0037 33.615 44.7481 32.325 44.248 31.1217C43.7478 29.9185 43.013 28.8258 42.0859 27.9068ZM35.0421 43.1552H35.0388C33.5563 43.1554 32.1011 42.7584 30.8258 42.006L30.5241 41.8271L27.3916 42.6452L28.2268 39.6059L28.0305 39.2946C27.2016 37.9813 26.7629 36.4615 26.7648 34.9106C26.7671 30.3688 30.4797 26.6737 35.0455 26.6737C36.1328 26.6713 37.2098 26.8835 38.2142 27.2982C39.2186 27.7128 40.1304 28.3216 40.8968 29.0892C41.6673 29.8532 42.278 30.7617 42.6937 31.762C43.1093 32.7623 43.3216 33.8347 43.3183 34.9172C43.3161 39.4591 39.6034 43.1552 35.0421 43.1552ZM39.5823 36.985C39.3327 36.8602 38.1103 36.2619 37.8818 36.1791C37.6544 36.0963 37.4892 36.0554 37.3228 36.3027C37.1564 36.55 36.6794 37.1075 36.5341 37.2731C36.3888 37.4387 36.2435 37.4586 35.995 37.335C35.7465 37.2113 34.9445 36.9497 33.9939 36.1062C33.254 35.4493 32.7548 34.639 32.6095 34.3906C32.4642 34.1422 32.594 34.0086 32.7193 33.885C32.8314 33.7746 32.9678 33.5957 33.0921 33.4511C33.2163 33.3065 33.2573 33.2038 33.3405 33.0382C33.4237 32.8726 33.3827 32.728 33.3195 32.6043C33.2573 32.4796 32.7593 31.2608 32.5518 30.7651C32.3511 30.2849 32.1459 30.3489 31.9928 30.3423C31.8342 30.3358 31.6756 30.3329 31.5169 30.3334C31.3907 30.3366 31.2666 30.3657 31.1522 30.4189C31.0379 30.4721 30.9358 30.5483 30.8525 30.6425C30.6239 30.8909 29.9817 31.4893 29.9817 32.7081C29.9817 33.9269 30.8735 35.1049 30.9978 35.2705C31.122 35.4361 32.7526 37.9366 35.2485 39.0097C35.843 39.2647 36.3067 39.4171 36.6672 39.5319C37.2629 39.7207 37.8053 39.6931 38.2346 39.6302C38.7127 39.5595 39.7066 39.0318 39.914 38.4533C40.1214 37.8748 40.1214 37.3791 40.0593 37.2753C39.9972 37.1716 39.8297 37.1086 39.5823 36.985Z" fill="white"/>
<defs>
<filter id="filter0_d" x="0" y="0" width="70" height="70" filterUnits="userSpaceOnUse" color-interpolation-filters="sRGB">
<feFlood flood-opacity="0" result="BackgroundImageFix"/>
<feColorMatrix in="SourceAlpha" type="matrix" values="0 0 0 0 0 0 0 0 0 0 0 0 0 0 0 0 0 0 127 0"/>
<feOffset/>
<feGaussianBlur stdDeviation="5"/>
<feColorMatrix type="matrix" values="0 0 0 0 0 0 0 0 0 0 0 0 0 0 0 0 0 0 0.1 0"/>
<feBlend mode="normal" in2="BackgroundImageFix" result="effect1_dropShadow"/>
<feBlend mode="normal" in="SourceGraphic" in2="effect1_dropShadow" result="shape"/>
</filter>
</defs>
</svg>
