<svg width="70" height="70" viewBox="0 0 70 70" fill="none" xmlns="http://www.w3.org/2000/svg">
<g filter="url(#filter0_d)">
<circle cx="35" cy="35" r="25" fill="#32495E"/>
<circle cx="35" cy="35" r="24.5" stroke="white"/>
</g>
<path d="M42.23 38.26L39.69 37.97C39.3914 37.9349 39.0886 37.968 38.8046 38.0667C38.5206 38.1654 38.2626 38.3272 38.05 38.54L36.21 40.38C33.3712 38.9362 31.0638 36.6288 29.62 33.79L31.47 31.94C31.9 31.51 32.11 30.91 32.04 30.3L31.75 27.78C31.6933 27.2922 31.4592 26.8422 31.0923 26.5158C30.7253 26.1895 30.2511 26.0094 29.76 26.01H28.03C26.9 26.01 25.96 26.95 26.03 28.08C26.56 36.62 33.39 43.44 41.92 43.97C43.05 44.04 43.99 43.1 43.99 41.97V40.24C44 39.23 43.24 38.38 42.23 38.26Z" fill="white"/>
<defs>
<filter id="filter0_d" x="0" y="0" width="70" height="70" filterUnits="userSpaceOnUse" color-interpolation-filters="sRGB">
<feFlood flood-opacity="0" result="BackgroundImageFix"/>
<feColorMatrix in="SourceAlpha" type="matrix" values="0 0 0 0 0 0 0 0 0 0 0 0 0 0 0 0 0 0 127 0"/>
<feOffset/>
<feGaussianBlur stdDeviation="5"/>
<feColorMatrix type="matrix" values="0 0 0 0 0 0 0 0 0 0 0 0 0 0 0 0 0 0 0.1 0"/>
<feBlend mode="normal" in2="BackgroundImageFix" result="effect1_dropShadow"/>
<feBlend mode="normal" in="SourceGraphic" in2="effect1_dropShadow" result="shape"/>
</filter>
</defs>
</svg>
