<svg width="70" height="70" viewBox="0 0 70 70" fill="none" xmlns="http://www.w3.org/2000/svg">
<g filter="url(#filter0_d)">
<circle cx="35" cy="35" r="25" fill="#4598FF"/>
<circle cx="35" cy="35" r="24.5" stroke="white"/>
</g>
<path d="M44.7891 24.48L45.3791 25.07C46.1921 25.884 46.0691 27.327 45.1021 28.293L32.9351 40.46L28.9931 41.902C28.4981 42.084 28.0161 41.848 27.9181 41.377C27.8849 41.2061 27.9005 41.0294 27.9631 40.867L29.4331 36.891L41.5661 24.757C42.5331 23.791 43.9761 23.667 44.7891 24.481V24.48ZM32.4041 25.69C32.5354 25.69 32.6654 25.7159 32.7867 25.7661C32.9081 25.8164 33.0183 25.89 33.1112 25.9829C33.204 26.0757 33.2777 26.186 33.3279 26.3073C33.3782 26.4286 33.4041 26.5587 33.4041 26.69C33.4041 26.8213 33.3782 26.9514 33.3279 27.0727C33.2777 27.194 33.204 27.3042 33.1112 27.3971C33.0183 27.49 32.9081 27.5636 32.7867 27.6139C32.6654 27.6641 32.5354 27.69 32.4041 27.69H28.4041C27.8736 27.69 27.3649 27.9007 26.9898 28.2758C26.6148 28.6509 26.4041 29.1596 26.4041 29.69V41.69C26.4041 42.2204 26.6148 42.7291 26.9898 43.1042C27.3649 43.4793 27.8736 43.69 28.4041 43.69H40.4041C40.9345 43.69 41.4432 43.4793 41.8183 43.1042C42.1933 42.7291 42.4041 42.2204 42.4041 41.69V37.69C42.4041 37.4248 42.5094 37.1704 42.6969 36.9829C42.8845 36.7954 43.1388 36.69 43.4041 36.69C43.6693 36.69 43.9236 36.7954 44.1112 36.9829C44.2987 37.1704 44.4041 37.4248 44.4041 37.69V41.69C44.4041 42.7509 43.9826 43.7683 43.2325 44.5184C42.4823 45.2686 41.4649 45.69 40.4041 45.69H28.4041C27.3432 45.69 26.3258 45.2686 25.5756 44.5184C24.8255 43.7683 24.4041 42.7509 24.4041 41.69V29.69C24.4041 28.6291 24.8255 27.6117 25.5756 26.8616C26.3258 26.1114 27.3432 25.69 28.4041 25.69H32.4041Z" fill="white"/>
<defs>
<filter id="filter0_d" x="0" y="0" width="70" height="70" filterUnits="userSpaceOnUse" color-interpolation-filters="sRGB">
<feFlood flood-opacity="0" result="BackgroundImageFix"/>
<feColorMatrix in="SourceAlpha" type="matrix" values="0 0 0 0 0 0 0 0 0 0 0 0 0 0 0 0 0 0 127 0"/>
<feOffset/>
<feGaussianBlur stdDeviation="5"/>
<feColorMatrix type="matrix" values="0 0 0 0 0 0 0 0 0 0 0 0 0 0 0 0 0 0 0.1 0"/>
<feBlend mode="normal" in2="BackgroundImageFix" result="effect1_dropShadow"/>
<feBlend mode="normal" in="SourceGraphic" in2="effect1_dropShadow" result="shape"/>
</filter>
</defs>
</svg>
