<svg width="70" height="70" viewBox="0 0 70 70" fill="none" xmlns="http://www.w3.org/2000/svg">
<g filter="url(#filter0_d)">
<circle cx="35" cy="35" r="25" fill="#C43A7C"/>
<circle cx="35" cy="35" r="24.5" stroke="white"/>
</g>
<path d="M35.0001 30.193C32.34 30.193 30.1931 32.3398 30.1931 35C30.1931 37.6602 32.34 39.807 35.0001 39.807C37.6603 39.807 39.8071 37.6602 39.8071 35C39.8071 32.3398 37.6603 30.193 35.0001 30.193ZM35.0001 38.1242C33.2798 38.1242 31.8759 36.7203 31.8759 35C31.8759 33.2797 33.2798 31.8758 35.0001 31.8758C36.7204 31.8758 38.1243 33.2797 38.1243 35C38.1243 36.7203 36.7204 38.1242 35.0001 38.1242ZM40.004 28.8758C39.3829 28.8758 38.8814 29.3773 38.8814 29.9984C38.8814 30.6195 39.3829 31.1211 40.004 31.1211C40.6251 31.1211 41.1267 30.6219 41.1267 29.9984C41.1269 29.851 41.0979 29.7049 41.0416 29.5686C40.9852 29.4323 40.9026 29.3085 40.7983 29.2042C40.694 29.0999 40.5701 29.0172 40.4339 28.9609C40.2976 28.9045 40.1515 28.8756 40.004 28.8758ZM44.3704 35C44.3704 33.7062 44.3821 32.4242 44.3095 31.1328C44.2368 29.6328 43.8946 28.3016 42.7978 27.2047C41.6985 26.1055 40.3696 25.7656 38.8696 25.693C37.5759 25.6203 36.2939 25.632 35.0025 25.632C33.7087 25.632 32.4267 25.6203 31.1353 25.693C29.6353 25.7656 28.304 26.1078 27.2071 27.2047C26.1079 28.3039 25.7681 29.6328 25.6954 31.1328C25.6228 32.4266 25.6345 33.7086 25.6345 35C25.6345 36.2914 25.6228 37.5758 25.6954 38.8672C25.7681 40.3672 26.1103 41.6984 27.2071 42.7953C28.3064 43.8945 29.6353 44.2344 31.1353 44.307C32.429 44.3797 33.711 44.368 35.0025 44.368C36.2962 44.368 37.5782 44.3797 38.8696 44.307C40.3696 44.2344 41.7009 43.8922 42.7978 42.7953C43.897 41.6961 44.2368 40.3672 44.3095 38.8672C44.3845 37.5758 44.3704 36.2937 44.3704 35ZM42.3079 40.5266C42.1368 40.9531 41.9306 41.2719 41.6001 41.6C41.2696 41.9305 40.9532 42.1367 40.5267 42.3078C39.2939 42.7977 36.3665 42.6875 35.0001 42.6875C33.6337 42.6875 30.704 42.7977 29.4712 42.3102C29.0446 42.1391 28.7259 41.9328 28.3978 41.6023C28.0673 41.2719 27.861 40.9555 27.69 40.5289C27.2025 39.2937 27.3126 36.3664 27.3126 35C27.3126 33.6336 27.2025 30.7039 27.69 29.4711C27.861 29.0445 28.0673 28.7258 28.3978 28.3977C28.7282 28.0695 29.0446 27.8609 29.4712 27.6898C30.704 27.2023 33.6337 27.3125 35.0001 27.3125C36.3665 27.3125 39.2962 27.2023 40.529 27.6898C40.9556 27.8609 41.2743 28.0672 41.6025 28.3977C41.9329 28.7281 42.1392 29.0445 42.3103 29.4711C42.7978 30.7039 42.6876 33.6336 42.6876 35C42.6876 36.3664 42.7978 39.2937 42.3079 40.5266Z" fill="white"/>
<defs>
<filter id="filter0_d" x="0" y="0" width="70" height="70" filterUnits="userSpaceOnUse" color-interpolation-filters="sRGB">
<feFlood flood-opacity="0" result="BackgroundImageFix"/>
<feColorMatrix in="SourceAlpha" type="matrix" values="0 0 0 0 0 0 0 0 0 0 0 0 0 0 0 0 0 0 127 0"/>
<feOffset/>
<feGaussianBlur stdDeviation="5"/>
<feColorMatrix type="matrix" values="0 0 0 0 0 0 0 0 0 0 0 0 0 0 0 0 0 0 0.1 0"/>
<feBlend mode="normal" in2="BackgroundImageFix" result="effect1_dropShadow"/>
<feBlend mode="normal" in="SourceGraphic" in2="effect1_dropShadow" result="shape"/>
</filter>
</defs>
</svg>
