<svg width="9" height="15" viewBox="0 0 9 15" fill="none" xmlns="http://www.w3.org/2000/svg">
<path d="M1.55084 5.29036C1.43331 5.40673 1.27461 5.47201 1.10921 5.47201C0.943822 5.47201 0.785113 5.40673 0.667586 5.29036C0.60956 5.23322 0.56348 5.1651 0.532027 5.08998C0.500573 5.01486 0.484375 4.93424 0.484375 4.8528C0.484375 4.77136 0.500573 4.69073 0.532027 4.61561C0.56348 4.54049 0.60956 4.47238 0.667586 4.41523L4.197 0.956264C4.31479 0.840056 4.47361 0.774902 4.63908 0.774902C4.80455 0.774902 4.96336 0.840056 5.08116 0.956264L8.61057 4.41523C8.6686 4.47238 8.71467 4.54049 8.74613 4.61561C8.77758 4.69073 8.79378 4.77136 8.79378 4.8528C8.79378 4.93424 8.77758 5.01486 8.74613 5.08998C8.71467 5.1651 8.6686 5.23322 8.61057 5.29036C8.49277 5.40657 8.33396 5.47172 8.16849 5.47172C8.00302 5.47172 7.84421 5.40657 7.72641 5.29036L4.63772 2.45365L1.55084 5.29036Z" fill="#F9F9F9"/>
<path d="M1.55084 9.80599C1.43331 9.92235 1.27461 9.98763 1.10921 9.98763C0.943822 9.98763 0.785113 9.92235 0.667586 9.80599C0.60956 9.74884 0.56348 9.68073 0.532027 9.60561C0.500573 9.53049 0.484375 9.44986 0.484375 9.36842C0.484375 9.28698 0.500573 9.20636 0.532027 9.13124C0.56348 9.05612 0.60956 8.988 0.667586 8.93086L4.197 5.47189C4.31479 5.35568 4.47361 5.29053 4.63908 5.29053C4.80455 5.29053 4.96336 5.35568 5.08116 5.47189L8.61057 8.93086C8.6686 8.988 8.71467 9.05612 8.74613 9.13124C8.77758 9.20636 8.79378 9.28698 8.79378 9.36842C8.79378 9.44986 8.77758 9.53049 8.74613 9.60561C8.71467 9.68073 8.6686 9.74884 8.61057 9.80599C8.49277 9.92219 8.33396 9.98735 8.16849 9.98735C8.00302 9.98735 7.84421 9.92219 7.72641 9.80599L4.63772 6.96927L1.55084 9.80599Z" fill="#F9F9F9"/>
<path d="M1.55084 14.3216C1.43331 14.438 1.27461 14.5033 1.10921 14.5033C0.943822 14.5033 0.785113 14.438 0.667586 14.3216C0.60956 14.2645 0.56348 14.1964 0.532027 14.1212C0.500573 14.0461 0.484375 13.9655 0.484375 13.884C0.484375 13.8026 0.500573 13.722 0.532027 13.6469C0.56348 13.5717 0.60956 13.5036 0.667586 13.4465L4.197 9.98751C4.31479 9.87131 4.47361 9.80615 4.63908 9.80615C4.80455 9.80615 4.96336 9.87131 5.08116 9.98751L8.61057 13.4465C8.6686 13.5036 8.71467 13.5717 8.74613 13.6469C8.77758 13.722 8.79378 13.8026 8.79378 13.884C8.79378 13.9655 8.77758 14.0461 8.74613 14.1212C8.71467 14.1964 8.6686 14.2645 8.61057 14.3216C8.49277 14.4378 8.33396 14.503 8.16849 14.503C8.00302 14.503 7.84421 14.4378 7.72641 14.3216L4.63772 11.4849L1.55084 14.3216Z" fill="#F9F9F9"/>
</svg>
