<svg width="34" height="34" viewBox="0 0 34 34" fill="none" xmlns="http://www.w3.org/2000/svg">
<path fill-rule="evenodd" clip-rule="evenodd" d="M5.44 17C5.44 23.392 10.608 28.56 17 28.56C23.392 28.56 28.56 23.392 28.56 17C28.56 10.608 23.392 5.43999 17 5.43999C10.608 5.43999 5.44 10.608 5.44 17ZM6.8 17C6.8 11.356 11.356 6.79999 17 6.79999C22.644 6.79999 27.2 11.356 27.2 17C27.2 22.644 22.644 27.2 17 27.2C11.356 27.2 6.8 22.644 6.8 17ZM23.8 17L13.6 11.084V22.916L23.8 17ZM14.96 20.536V13.396L21.08 16.932L14.96 20.536Z" fill="#F9F9F9"/>
</svg>
