<svg width="206" height="45" viewBox="0 0 206 45" fill="none" xmlns="http://www.w3.org/2000/svg">
<path fill-rule="evenodd" clip-rule="evenodd" d="M0.0408694 16.8393C0.464547 22.6331 4.47768 27.275 12.0803 30.7649C21.1988 20.578 34.9739 10.3231 53.4055 0C40.7182 5.27034 28.4481 11.9515 16.5949 20.0438C12.4253 16.5201 10.6889 13.6845 11.3857 11.5368C12.3565 8.65715 14.71 7.8025 18.4469 8.97301C16.0418 8.62066 14.7734 9.04317 14.6412 10.2405C14.5289 11.0205 14.9886 11.4896 15.4918 11.8269C16.3525 12.4038 17.4686 12.4793 19.2856 12.2941C20.9651 12.1352 22.3638 12.6791 23.4818 13.9255C24.0753 14.2444 24.3742 13.9336 24.3789 12.9932C25.3768 13.0309 26.0134 12.9629 26.289 12.7894C21.7345 9.95295 18.5317 7.68041 16.6811 5.97203C15.2049 4.90385 17.4069 4.03293 17.5 3.75C10.6063 2.84814 6.2856 4.84697 4.67123 7.22482C1.26586 10.0726 -0.277672 13.2774 0.0408694 16.8393Z" fill="#32495E"/>
<path fill-rule="evenodd" clip-rule="evenodd" d="M51.2582 13.041C40.9435 15.1989 26.5513 24.104 8.08154 39.7561C25.7356 20.211 40.397 9.48906 52.0682 7.59269C61.2429 6.44685 67.1851 9.36009 69.8948 16.3328C70.8354 22.0538 65.4722 28.1913 53.8047 34.7453C46.4978 39.0612 40.5556 42.4796 35.9781 45.0001C29.7126 42.3582 23.9248 39.173 18.6145 35.4443C32.2634 24.8355 41.5241 19.5137 46.3963 19.4792C49.5206 18.9749 51.2473 20.0431 51.5765 22.6836C51.4781 24.2419 50.5907 25.4655 48.9142 26.3547C49.1407 24.1949 48.2917 22.7966 46.3674 22.1594C43.312 21.6155 41.3442 22.4312 40.4639 24.6064C38.8341 28.9455 37.4451 31.4802 36.2965 32.2104C34.2002 33.2455 33.3224 34.1778 33.6632 35.0072C34.0934 36.1055 34.489 36.7465 34.8497 36.93C35.4207 36.1152 35.9511 35.6102 36.4413 35.4151C36.8765 35.8046 36.4039 36.6883 35.0233 38.0663C35.6134 38.6083 36.3753 38.5693 37.3094 37.9497C46.681 31.8577 52.7776 28.0121 55.5993 26.4128C56.4678 26.0051 57.4711 26.481 58.6089 27.8403C58.8518 26.2139 59.0255 24.2329 59.1296 21.8975C61.4195 17.7488 61.6123 14.952 59.7083 13.5071C57.1207 12.2547 54.3039 12.0993 51.2582 13.041Z" fill="#E95258"/>
<path d="M96.45 31.02H101.25V14.67H107.1V10.02H90.6V14.67H96.45V31.02ZM118.495 31.32C123.895 31.32 127.345 27.87 127.345 22.32V10.02H122.545V22.32C122.545 24.87 120.745 26.67 118.495 26.67C116.245 26.67 114.445 24.87 114.445 22.32V10.02H109.645V22.32C109.645 27.87 113.095 31.32 118.495 31.32ZM131.387 31.02H145.637V26.37H136.187V10.02H131.387V31.02ZM148.174 31.02H152.974V24.72H157.924C161.974 24.72 164.824 21.87 164.824 17.37C164.824 12.87 161.974 10.02 157.924 10.02H148.174V31.02ZM152.974 20.07V14.67H157.624C158.974 14.67 160.024 15.72 160.024 17.37C160.024 19.02 158.974 20.07 157.624 20.07H152.974ZM163.942 31.02H169.192L170.542 26.82H178.642L179.992 31.02H185.242L178.042 10.02H171.142L163.942 31.02ZM171.892 22.62L174.292 15.12H174.892L177.292 22.62H171.892ZM187.198 31.02H191.998V24.27H192.598L198.598 31.02H204.598L198.148 23.97C198.148 23.97 203.998 23.67 203.998 17.22C203.998 12.87 201.148 10.02 197.098 10.02H187.198V31.02ZM191.998 19.92V14.52H196.798C198.148 14.52 199.198 15.57 199.198 17.22C199.198 18.87 198.148 19.92 196.798 19.92H191.998Z" fill="#E95258"/>
</svg>
