<svg width="128" height="31" viewBox="0 0 128 31" fill="none" xmlns="http://www.w3.org/2000/svg">
<path fill-rule="evenodd" clip-rule="evenodd" d="M0.0282654 11.6004C0.321283 15.5917 3.09678 18.7894 8.35481 21.1936C14.6612 14.1759 24.1881 7.11146 36.9355 0C28.1609 3.63068 19.6748 8.23324 11.4771 13.8079C8.59337 11.3805 7.39249 9.42712 7.8744 7.94756C8.5458 5.96381 10.1735 5.37505 12.758 6.1814C11.0946 5.93868 10.2173 6.22974 10.1259 7.05455C10.0483 7.59193 10.3662 7.91505 10.7142 8.14744C11.3094 8.54487 12.0814 8.59686 13.338 8.46929C14.4996 8.35983 15.4669 8.73446 16.2401 9.59314C16.6506 9.81283 16.8573 9.59871 16.8606 8.95087C17.5507 8.97684 17.991 8.93002 18.1816 8.81047C15.0316 6.85648 12.8166 5.29095 11.5367 4.11407C10.5158 3.37821 12.0387 2.77824 12.1031 2.58333C7.33539 1.96205 4.34715 3.33903 3.23065 4.9771C0.875474 6.93888 -0.192039 9.14666 0.0282654 11.6004Z" fill="#32495E"/>
<path fill-rule="evenodd" clip-rule="evenodd" d="M35.4504 8.98386C28.3167 10.4705 18.363 16.605 5.58923 27.3876C17.7988 13.9232 27.9388 6.53699 36.0106 5.2306C42.3559 4.44124 46.4655 6.44814 48.3396 11.2516C48.9901 15.1927 45.2808 19.4208 37.2115 23.9357C32.1581 26.9089 28.0484 29.2638 24.8826 31.0002C20.5494 29.1801 16.5465 26.9859 12.8739 24.4173C22.3135 17.1089 28.7182 13.4429 32.0879 13.4191C34.2487 13.0717 35.4429 13.8075 35.6705 15.6266C35.6025 16.7001 34.9888 17.543 33.8293 18.1555C33.9859 16.6677 33.3988 15.7044 32.0679 15.2654C29.9548 14.8907 28.5938 15.4527 27.985 16.9512C26.8578 19.9403 25.8972 21.6864 25.1029 22.1895C23.653 22.9025 23.0459 23.5448 23.2816 24.1162C23.5792 24.8728 23.8527 25.3143 24.1022 25.4408C24.4971 24.8794 24.8639 24.5316 25.203 24.3971C25.504 24.6655 25.1771 25.2742 24.2222 26.2236C24.6304 26.5969 25.1573 26.5701 25.8034 26.1432C32.2848 21.9465 36.5012 19.2973 38.4527 18.1956C39.0534 17.9147 39.7472 18.2425 40.5342 19.179C40.7022 18.0585 40.8223 16.6939 40.8943 15.085C42.478 12.227 42.6114 10.3003 41.2945 9.30499C39.5049 8.4422 37.5568 8.33516 35.4504 8.98386Z" fill="#E95258"/>
<path d="M65.8994 20.9922H68.6194V11.7272H71.9344V9.09219H62.5844V11.7272H65.8994V20.9922ZM78.3917 21.1622C81.4517 21.1622 83.4067 19.2072 83.4067 16.0622V9.09219H80.6867V16.0622C80.6867 17.5072 79.6667 18.5272 78.3917 18.5272C77.1167 18.5272 76.0967 17.5072 76.0967 16.0622V9.09219H73.3767V16.0622C73.3767 19.2072 75.3317 21.1622 78.3917 21.1622ZM85.6971 20.9922H93.7721V18.3572H88.4171V9.09219H85.6971V20.9922ZM95.2098 20.9922H97.9298V17.4222H100.735C103.03 17.4222 104.645 15.8072 104.645 13.2572C104.645 10.7072 103.03 9.09219 100.735 9.09219H95.2098V20.9922ZM97.9298 14.7872V11.7272H100.565C101.33 11.7272 101.925 12.3222 101.925 13.2572C101.925 14.1922 101.33 14.7872 100.565 14.7872H97.9298ZM104.145 20.9922H107.12L107.885 18.6122H112.475L113.24 20.9922H116.215L112.135 9.09219H108.225L104.145 20.9922ZM108.65 16.2322L110.01 11.9822H110.35L111.71 16.2322H108.65ZM117.323 20.9922H120.043V17.1672H120.383L123.783 20.9922H127.183L123.528 16.9972C123.528 16.9972 126.843 16.8272 126.843 13.1722C126.843 10.7072 125.228 9.09219 122.933 9.09219H117.323V20.9922ZM120.043 14.7022V11.6422H122.763C123.528 11.6422 124.123 12.2372 124.123 13.1722C124.123 14.1072 123.528 14.7022 122.763 14.7022H120.043Z" fill="#32495E"/>
</svg>
