<svg width="44" height="44" viewBox="0 0 44 44" fill="none" xmlns="http://www.w3.org/2000/svg">
<path d="M37.125 23.375C36.2723 23.3762 35.4409 23.6412 34.7447 24.1335C34.0485 24.6258 33.5216 25.3215 33.2363 26.125H29.8659L27.4295 18.8152C27.3366 18.5367 27.157 18.2952 26.917 18.1261C26.6769 17.9571 26.389 17.8693 26.0955 17.8756C25.802 17.882 25.5182 17.9821 25.2856 18.1614C25.0531 18.3406 24.8841 18.5896 24.8033 18.8719L20.9782 32.2575L16.4811 5.27315C16.4289 4.9616 16.2711 4.6775 16.0341 4.46863C15.7971 4.25976 15.4955 4.13885 15.1798 4.12625C14.8642 4.11364 14.5538 4.2101 14.301 4.39941C14.0481 4.58872 13.8681 4.85932 13.7912 5.16573L8.55164 26.125H4.125C3.76033 26.125 3.41059 26.2699 3.15273 26.5278C2.89487 26.7856 2.75 27.1354 2.75 27.5C2.75 27.8647 2.89487 28.2144 3.15273 28.4723C3.41059 28.7302 3.76033 28.875 4.125 28.875H9.625C9.93162 28.875 10.2294 28.7724 10.4711 28.5837C10.7127 28.395 10.8844 28.1309 10.9587 27.8335L14.8552 12.247L19.2689 38.726C19.3198 39.0344 19.4741 39.3162 19.7066 39.525C19.939 39.7339 20.2357 39.8573 20.5477 39.875H20.6259C20.9244 39.8748 21.2148 39.7774 21.453 39.5975C21.6913 39.4177 21.8646 39.1652 21.9467 38.8782L26.2264 23.901L27.5705 27.9349C27.6617 28.2087 27.8368 28.4468 28.071 28.6155C28.3051 28.7843 28.5864 28.875 28.875 28.875H33.2363C33.4884 29.588 33.9317 30.218 34.5176 30.6961C35.1036 31.1742 35.8097 31.482 36.5588 31.5859C37.3079 31.6898 38.0711 31.5858 38.7651 31.2851C39.459 30.9845 40.057 30.4989 40.4936 29.8814C40.9302 29.2639 41.1886 28.5383 41.2406 27.7838C41.2927 27.0293 41.1363 26.2751 40.7886 25.6035C40.4409 24.9319 39.9152 24.3688 39.2691 23.9758C38.623 23.5828 37.8813 23.375 37.125 23.375Z" fill="#F9F9F9"/>
</svg>
