<svg width="98" height="98" viewBox="0 0 98 98" fill="none" xmlns="http://www.w3.org/2000/svg">
<path d="M97 49C97 75.5097 75.5097 97 49 97C22.4903 97 1 75.5097 1 49C1 22.4903 22.4903 1 49 1C75.5097 1 97 22.4903 97 49Z" stroke="#E95258" stroke-width="2"/>
<path d="M82.725 45.9694V73.0687H79.4V67.2992V66.6544L78.7552 66.6493L18.6302 66.1683L17.975 66.163V66.8182V73.0687H14.65V24.65H17.975V33.25V33.9H18.625H25.8855C29.0706 33.9039 32.1242 35.1709 34.3764 37.4231C36.6286 39.6753 37.8956 42.7289 37.8995 45.914V51.8394V52.4894H38.5495H41.75H42.4V51.8394V35.0562H71.8118C74.7052 35.0593 77.4792 36.2101 79.5252 38.2561C81.5712 40.302 82.7219 43.076 82.725 45.9694ZM18.625 37.225H17.9751L17.975 37.8749L17.9719 51.8393L17.9718 52.4894H18.6219H33.9214H34.5714V51.8394V45.9132V45.9125C34.5688 43.6092 33.6526 41.4011 32.024 39.7724C30.3953 38.1438 28.1872 37.2276 25.8839 37.225H25.8832H18.625ZM78.7448 63.3242L79.4 63.3295V62.6742V56.4644V55.8144H78.75H18.625H17.975V56.4644V62.1932V62.8381L18.6198 62.8432L78.7448 63.3242ZM78.75 52.4894H79.4V51.8394V45.9688V45.9682C79.3982 43.9565 78.5983 42.0278 77.1759 40.6054C75.7534 39.1829 73.8247 38.383 71.8131 38.3813H71.8125H46.375H45.725V39.0312V51.8394V52.4894H46.375H78.75Z" fill="#E95258" stroke="#32495E" stroke-width="1.3"/>
</svg>
