<svg width="98" height="98" viewBox="0 0 98 98" fill="none" xmlns="http://www.w3.org/2000/svg">
<circle cx="49" cy="49" r="48" stroke="#E95258" stroke-width="2"/>
<path d="M60.9731 55.7617L59.9223 55.1031C59.8456 55.0536 59.7596 55.0202 59.6696 55.005C59.5796 54.9897 59.4875 54.9929 59.3987 55.0143C59.3101 55.0344 59.2263 55.0718 59.1523 55.1245C59.0783 55.1773 59.0155 55.2442 58.9677 55.3214C57.9177 57.0114 56.4532 58.4048 54.7131 59.3694C52.9731 60.3339 51.0153 60.8376 49.0258 60.8326C47.0244 60.8386 45.0552 60.3296 43.3076 59.3543C41.5599 58.3791 40.0926 56.9705 39.0469 55.2641C38.9499 55.108 38.795 54.9966 38.6161 54.9543C38.4373 54.912 38.2489 54.9423 38.0923 55.0384L37.0341 55.6914C36.8776 55.7881 36.7659 55.943 36.7236 56.122C36.6812 56.301 36.7117 56.4895 36.8084 56.646C38.0904 58.7331 39.8874 60.4555 42.0269 61.648C44.1664 62.8405 46.5764 63.4631 49.0258 63.4559C51.4599 63.4625 53.8554 62.847 55.9848 61.6678C58.1143 60.4886 59.9071 58.7848 61.1932 56.7182C61.2416 56.6409 61.2743 56.5549 61.2894 56.465C61.3045 56.3752 61.3018 56.2832 61.2813 56.1943C61.2609 56.1055 61.2231 56.0216 61.1703 55.9474C61.1174 55.8731 61.0504 55.8101 60.9731 55.7617Z" fill="#E95258"/>
<path d="M40.2402 42.6359C41.3069 42.6359 42.1716 41.7712 42.1716 40.7045C42.1716 39.6378 41.3069 38.7731 40.2402 38.7731C39.1736 38.7731 38.3088 39.6378 38.3088 40.7045C38.3088 41.7712 39.1736 42.6359 40.2402 42.6359Z" fill="#E95258"/>
<path d="M57.1454 42.6359C58.2121 42.6359 59.0768 41.7712 59.0768 40.7045C59.0768 39.6378 58.2121 38.7731 57.1454 38.7731C56.0787 38.7731 55.214 39.6378 55.214 40.7045C55.214 41.7712 56.0787 42.6359 57.1454 42.6359Z" fill="#E95258"/>
</svg>
