<svg width="98" height="98" viewBox="0 0 98 98" fill="none" xmlns="http://www.w3.org/2000/svg">
<circle cx="49" cy="49" r="48" stroke="#E95258" stroke-width="2"/>
<path d="M55.1232 41.5331L55.0351 41.85H55.364H65.28C66.9461 41.85 68.3675 42.2488 69.366 43.002C70.3559 43.7489 70.95 44.858 70.95 46.336C70.95 47.7218 70.1126 49.133 68.978 49.984L68.7977 50.1192L68.9137 50.3126C69.356 51.0498 69.766 51.8862 69.766 52.7C69.766 54.0649 68.8028 55.3279 67.6635 56.04L67.4863 56.1507L67.5639 56.3448C67.8478 57.0546 67.99 57.7631 67.99 58.62C67.99 60.4128 66.7502 61.8189 65.0359 62.5332L64.7887 62.6362L64.9084 62.8758C65.0253 63.1095 65.03 63.3427 65.03 63.8C65.03 64.75 64.5174 65.7973 63.6308 66.613C62.7479 67.4252 61.5121 67.99 60.1 67.99H46.04C44.5619 67.99 43.1908 67.3509 41.774 66.6906C41.5558 66.5889 41.3366 66.4867 41.1157 66.3863L41.0772 66.367C39.73 65.6934 38.5692 65.1129 37.41 65.0381V44.2385C40.6531 41.7204 44.6344 38.0175 46.2727 33.8474L46.2815 33.8251L46.2859 33.8015L47.7627 25.8267C47.8326 25.6189 47.8972 25.4639 47.987 25.3291C48.0758 25.196 48.1964 25.0721 48.3905 24.9415C49.6703 24.2324 50.6595 24.09 51.96 24.09C52.4413 24.09 52.9327 24.1927 53.4016 24.4673C53.8706 24.742 54.3315 25.1969 54.739 25.9233C55.5585 27.3842 56.15 29.9224 56.15 34.2C56.15 36.398 55.8569 38.8915 55.1232 41.5331ZM65.5252 58.817L65.53 58.7927V58.768V58.472C65.53 57.5249 65.2498 56.9644 65.023 56.5108L65.0226 56.5102C64.8025 56.0699 64.6594 55.7744 64.7815 55.2809C64.8326 55.1066 64.9692 54.9553 65.2006 54.7946C65.3534 54.6885 65.5193 54.5958 65.7015 54.4939C65.8075 54.4346 65.919 54.3723 66.0367 54.3024C66.6457 53.9408 67.306 53.4319 67.306 52.404C67.306 51.4309 66.8935 50.8574 66.5499 50.4184C66.5403 50.4061 66.5309 50.3941 66.5215 50.3821C66.1847 49.9521 66.0105 49.7297 66.1109 49.3701C66.1611 49.2245 66.2847 49.0884 66.4951 48.9284C66.5994 48.8491 66.7159 48.7705 66.8444 48.6837L66.8445 48.6836C66.971 48.5982 67.1078 48.5059 67.243 48.4045C67.5139 48.2013 67.7911 47.9528 67.9992 47.617C68.2096 47.2778 68.342 46.862 68.342 46.336C68.342 45.6989 67.9316 45.1863 67.3708 44.8458C66.8076 44.5038 66.0581 44.31 65.28 44.31H51.96C51.5728 44.31 51.2696 44.182 51.0638 43.9762C50.858 43.7704 50.73 43.4672 50.73 43.08C50.73 42.6928 50.858 42.3895 51.0638 42.1837C51.2696 41.9779 51.5728 41.85 51.96 41.85H52.256H52.4488L52.4978 41.6636C53.2397 38.8444 53.69 36.452 53.69 34.2C53.69 31.372 53.3925 29.4972 53.0511 28.3213C52.8806 27.734 52.6974 27.3148 52.5305 27.0367C52.4475 26.8984 52.3645 26.788 52.2837 26.7088C52.2433 26.6692 52.1988 26.6327 52.1503 26.6047C52.1042 26.5781 52.0384 26.55 51.96 26.55H51.9459C51.2166 26.55 50.7453 26.55 50.1234 26.7054L49.9666 26.7446L49.938 26.9037L48.606 34.3037L48.602 34.3256V34.348V34.6021C46.8423 39.6859 42.1785 43.7767 38.4888 46.5809L38.39 46.656V46.78V62.32V62.5152L38.5794 62.5625C39.7318 62.8506 40.8905 63.4287 42.0802 64.0236L42.1229 64.0449C43.5669 64.767 44.7968 65.382 46.04 65.382H60.1C60.7301 65.382 61.3339 65.225 61.7883 64.9359C62.2442 64.6457 62.57 64.2057 62.57 63.652C62.57 62.9626 62.4918 62.4977 62.4342 62.1552C62.4217 62.0814 62.4103 62.0133 62.4008 61.9499C62.3739 61.7711 62.3645 61.6419 62.3806 61.5203C62.3957 61.4058 62.4355 61.2844 62.5269 61.1292C62.557 61.0925 62.6091 61.048 62.6932 60.9965C62.7825 60.9417 62.8947 60.8869 63.0283 60.8285C63.1406 60.7795 63.262 60.7304 63.3923 60.6777C63.4171 60.6677 63.4421 60.6576 63.4675 60.6473C63.6249 60.5836 63.7923 60.5148 63.9595 60.4383C64.6137 60.1392 65.3512 59.6869 65.5252 58.817Z" fill="#E95258" stroke="#32495E" stroke-width="0.5"/>
<path d="M26.8 44.31H26.55V44.56V65.28V65.53H26.8H35.68H35.93V65.28V44.56V44.31H35.68H26.8ZM35.68 67.99H26.8C25.31 67.99 24.09 66.7699 24.09 65.28V44.56C24.09 43.07 25.31 41.85 26.8 41.85H35.68C37.1699 41.85 38.39 43.07 38.39 44.56V65.28C38.39 66.7699 37.1699 67.99 35.68 67.99Z" fill="#E95258" stroke="#32495E" stroke-width="0.5"/>
</svg>
