<svg width="98" height="98" viewBox="0 0 98 98" fill="none" xmlns="http://www.w3.org/2000/svg">
<circle cx="49" cy="49" r="48" stroke="#E95258" stroke-width="2"/>
<path d="M38.5938 47.9722C42.1057 47.9722 43.4757 44.9742 43.4757 41.6339L38.5938 47.9722Z" fill="#EA5A47"/>
<path d="M48.2804 52.5335C48.2804 50.2251 49.5137 47.1377 53.4964 47.1377L48.2804 52.5335Z" fill="#EA5A47"/>
<path d="M53.4965 58.7638C53.4965 58.7638 53.665 69.5555 45.3174 69.5555H28.4444C21.0362 69.5555 20.5644 58.7638 28.4444 58.7638C21.0362 58.7638 20.5644 47.9721 28.4444 47.9721C20.0505 40.5207 30.3715 34.0324 35.125 39.0428C30.1926 32.2338 40.6493 28.4444 44.2465 33.9039C43.823 28.4444 49.2281 27.4597 54.2416 31.5524L53.7966 31.9131C56.2376 29.4721 64.2563 30.8 64.2563 37.3747L61.9756 39.0428C69.0313 31.9881 76.5783 43.3471 70.7118 47.5014H72.0818C76.9637 47.5014 77.5208 58.7638 70.7118 58.7638H42.1056" fill="#32495E"/>
<path d="M53.7966 31.9132C51.3125 34.3973 53.5058 35.1795 49.407 39.2793L53.7966 31.9132Z" fill="#EA5A47"/>
<path d="M28.4445 47.9723H38.5938" stroke="#E95258" stroke-width="2" stroke-miterlimit="10" stroke-linecap="round" stroke-linejoin="round"/>
<path d="M38.5938 47.9723C42.1057 47.9723 43.4757 44.9743 43.4757 41.634" stroke="#E95258" stroke-width="2" stroke-miterlimit="10" stroke-linecap="round" stroke-linejoin="round"/>
<path d="M28.4445 58.7639H32.2986" stroke="#E95258" stroke-width="2" stroke-miterlimit="10" stroke-linecap="round" stroke-linejoin="round"/>
<path d="M48.2805 58.764V52.5336" stroke="#E95258" stroke-width="2" stroke-miterlimit="10" stroke-linecap="round" stroke-linejoin="round"/>
<path d="M48.2805 52.5335C48.2805 50.2251 49.5139 47.1377 53.4965 47.1377" stroke="#E95258" stroke-width="2" stroke-miterlimit="10" stroke-linecap="round" stroke-linejoin="round"/>
<path d="M72.0819 47.5015H63.2605" stroke="#E95258" stroke-width="2" stroke-miterlimit="10" stroke-linecap="round" stroke-linejoin="round"/>
<path d="M53.4965 58.7638C53.4965 58.7638 53.665 69.5555 45.3174 69.5555H28.4444C21.0362 69.5555 20.5644 58.7638 28.4444 58.7638C21.0362 58.7638 20.5644 47.9721 28.4444 47.9721C20.0505 40.5207 30.3715 34.0324 35.125 39.0428C30.1926 32.2338 40.6493 28.4444 44.2465 33.9039C43.823 28.4444 49.2281 27.4597 54.2416 31.5524L53.7966 31.9131C56.2376 29.4721 64.2563 30.8 64.2563 37.3747L61.9756 39.0428C69.0313 31.9881 76.5783 43.3471 70.7118 47.5014H72.0818C76.9637 47.5014 77.5208 58.7638 70.7118 58.7638H42.1056" stroke="#E95258" stroke-width="2" stroke-miterlimit="10" stroke-linecap="round" stroke-linejoin="round"/>
<path d="M53.7966 31.9132C51.3125 34.3973 53.5058 35.1795 49.407 39.2793" stroke="#E95258" stroke-width="2" stroke-miterlimit="10" stroke-linecap="round" stroke-linejoin="round"/>
</svg>
